<svg id="Layer_1" data-name="Layer 1" xmlns="http://www.w3.org/2000/svg" viewBox="0 0 120 120"><defs><style>.cls-1{fill:#ff5a5a;}</style></defs><title>Smoke Icon - 120x120 - Red</title><path class="cls-1" d="M75.24,75.81,63.78,68.4l5.73,3.71-5.74-3.69c.11-.16,10.54-16.57,2-25.72-6.9-7.37-8.42-17.33-4.4-28.81A55.81,55.81,0,0,1,68.69,0l10.9,8.2c-.11.15-12.13,16.37-3.83,25.23C91.6,50.36,75.91,74.78,75.24,75.81Z"/><path class="cls-1" d="M53.27,120l-11.46-7.42,5.73,3.71-5.74-3.69c.11-.16,10.54-16.57,2-25.72-6.9-7.37-8.42-17.33-4.4-28.81a55.81,55.81,0,0,1,7.34-13.89l10.9,8.2c-.11.15-12.13,16.37-3.83,25.23C69.63,94.54,53.95,119,53.27,120Z"/></svg>